<?xml version="1.0" encoding="iso-8859-1"?>
<!-- Generator: Adobe Illustrator 19.0.0, SVG Export Plug-In . SVG Version: 6.00 Build 0)  -->
<svg version="1.1" id="Capa_1" xmlns="http://www.w3.org/2000/svg" xmlns:xlink="http://www.w3.org/1999/xlink" x="0px"
     y="0px"
     viewBox="0 0 481.28 481.28" style="enable-background:new 0 0 481.28 481.28;" xml:space="preserve">
<path style="fill:#00BCFF;" d="M240.64,471.04h-102.4c-28.16,0-51.2-23.04-51.2-51.2V61.44c0-28.16,23.04-51.2,51.2-51.2h153.6
	l102.4,102.4v204.8v102.4c0,28.16-23.04,51.2-51.2,51.2H240.64z"/>
    <path style="fill:#0066FF;" d="M394.24,112.64h-51.2c-28.16,0-51.2-23.04-51.2-51.2v-51.2L394.24,112.64z"/>
    <path d="M404.48,110.592L404.48,110.592c0-1.024-0.512-1.536-1.024-2.56c0,0,0-0.512-0.512-0.512
	c-0.512-1.024-1.024-1.536-1.536-2.048l-102.4-102.4c-0.512-0.512-1.536-1.024-2.048-1.536c0,0-0.512,0-0.512-0.512
	c-1.024-0.512-1.536-0.512-2.56-1.024l0,0c-0.512,0-1.536,0-2.048,0h-153.6C104.448,0,76.8,27.648,76.8,61.44v358.4
	c0,33.792,27.648,61.44,61.44,61.44h204.8c33.792,0,61.44-27.648,61.44-61.44v-307.2C404.48,112.128,404.48,111.104,404.48,110.592z
	 M302.08,34.816l33.792,33.792l33.792,33.792H343.04c-22.528,0-40.96-18.432-40.96-40.96V34.816z M343.04,460.8h-204.8
	c-22.528,0-40.96-18.432-40.96-40.96V61.44c0-22.528,18.432-40.96,40.96-40.96H281.6v40.96c0,33.792,27.648,61.44,61.44,61.44H384
	v296.96C384,442.368,365.568,460.8,343.04,460.8z"/>
    <path d="M345.6,275.456H138.24c-5.632,0-10.24-4.608-10.24-10.24c0-5.632,4.608-10.24,10.24-10.24H345.6
	c5.632,0,10.24,4.608,10.24,10.24C355.84,270.848,351.232,275.456,345.6,275.456z"/>
    <path d="M345.6,225.28H138.24c-5.632,0-10.24-4.608-10.24-10.24s4.608-10.24,10.24-10.24H345.6c5.632,0,10.24,4.608,10.24,10.24
	S351.232,225.28,345.6,225.28z"/>
    <path d="M345.6,174.08H138.24c-5.632,0-10.24-4.608-10.24-10.24s4.608-10.24,10.24-10.24H345.6c5.632,0,10.24,4.608,10.24,10.24
	S351.232,174.08,345.6,174.08z"/>
    <path d="M240.64,71.68h-102.4c-5.632,0-10.24-4.608-10.24-10.24s4.608-10.24,10.24-10.24h102.4c5.632,0,10.24,4.608,10.24,10.24
	S246.272,71.68,240.64,71.68z"/>
    <path d="M169.472,337.92c-3.584-1.024-7.68-1.536-12.8-1.536h-17.92c-3.584,0-6.656,1.024-8.192,3.072
	c-2.048,2.048-2.56,4.608-2.56,8.704v53.76c0,2.56,0,4.608,0.512,6.656c0.512,2.048,1.536,3.584,3.584,5.12
	c1.536,1.024,4.096,1.536,7.168,1.536h17.92c3.072,0,6.144,0,8.704-0.512s5.12-1.536,7.68-2.56c2.56-1.024,4.608-2.56,6.656-4.608
	c2.56-2.56,4.608-5.12,6.144-8.704c1.536-3.072,2.56-6.656,3.584-10.752c0.512-3.584,1.024-8.192,1.024-12.8
	c0-13.824-4.096-24.576-11.264-31.744C176.64,340.992,173.568,338.944,169.472,337.92z M172.032,375.296
	c0,9.216-2.048,16.384-6.144,19.968c-1.024,0.512-1.536,1.536-2.56,1.536c-1.024,0.512-2.56,0.512-3.584,1.024
	c-1.024,0-3.072,0-5.12,0h-8.192V353.28h6.656c4.096,0,7.168,0.512,10.24,1.536c2.56,1.024,4.608,2.56,6.144,5.632
	C171.008,363.52,172.032,368.64,172.032,375.296z"/>
    <path d="M260.096,340.48c-5.632-3.072-12.288-5.12-19.456-5.12c-5.632,0-10.752,1.024-14.848,3.072
	c-4.608,2.048-8.192,4.608-11.264,8.192c-3.072,3.584-5.632,7.68-7.168,12.8c-1.536,5.12-2.56,10.24-2.56,16.384
	c0,5.632,1.024,11.264,2.048,15.872c1.536,5.12,4.096,9.216,6.656,12.8c3.072,3.584,7.168,6.656,11.776,8.704
	c4.608,2.048,9.728,3.072,15.36,3.072c5.632,0,10.752-1.024,15.36-3.072s8.192-4.608,11.264-8.704
	c3.072-3.584,5.632-8.192,7.168-12.8c1.536-4.608,2.048-10.24,2.048-16.384c0-8.192-1.536-15.36-4.096-20.992
	S265.728,343.552,260.096,340.48z M233.984,353.792c2.048-1.024,4.096-1.536,6.656-1.536c3.584,0,6.144,1.024,8.704,2.56
	c2.56,1.536,4.608,4.096,6.144,7.68c1.536,3.584,2.048,8.192,2.048,12.8c0,5.632-1.024,10.24-2.56,13.824
	c-1.536,3.584-3.584,6.144-6.144,7.68c-4.608,3.072-10.24,3.072-14.848,1.024c-2.048-1.024-3.584-2.56-5.12-4.096
	c-1.536-2.048-2.56-4.608-3.584-7.68s-1.536-6.656-1.536-10.752c0-4.096,0.512-7.168,1.536-10.24s2.048-5.632,3.584-7.168
	C230.4,355.84,231.936,354.816,233.984,353.792z"/>
    <path d="M354.304,382.976c-1.536-1.536-3.584-2.56-6.144-2.56c-3.584,0-5.12,1.536-6.144,3.072c-1.024,1.536-2.048,3.072-2.56,5.632
	c-1.024,3.584-3.072,6.144-5.12,8.192c-2.56,1.536-5.12,2.56-8.704,2.56c-3.072,0-5.632-1.024-8.192-2.56
	c-2.048-1.536-4.096-4.096-5.632-7.168c-1.536-3.584-2.048-8.192-2.048-13.312c0-8.192,1.536-14.336,4.608-18.432
	c3.072-4.096,6.656-6.144,11.776-6.144c3.072,0,5.632,0.512,7.68,2.048c2.048,1.536,4.096,4.096,5.632,7.168
	c1.024,2.56,2.56,4.096,3.584,5.12c1.536,1.536,3.584,2.048,5.632,2.048c2.56,0,4.608-1.024,6.144-3.072
	c1.536-1.536,2.56-4.096,2.56-6.144c0-3.584-1.536-7.168-4.096-11.264c-2.56-3.584-6.144-7.168-10.752-9.728
	c-4.608-2.56-10.24-4.096-15.872-4.096c-5.12,0-9.728,1.024-13.824,2.56c-4.096,2.048-8.192,4.608-11.264,8.192
	c-3.072,3.584-5.632,7.68-7.168,12.8s-2.56,10.752-2.56,16.896c0,3.584,0.512,7.168,1.024,10.752
	c0.512,3.584,1.536,6.656,3.072,9.728c1.536,3.072,3.072,5.632,5.12,8.192s4.608,5.12,7.168,6.656
	c2.56,1.536,5.632,3.072,8.704,3.584c3.072,1.024,6.656,1.024,10.24,1.024c5.12,0,9.728-1.024,13.824-2.56
	c4.096-1.536,7.168-4.096,9.728-7.168c2.56-3.072,4.096-5.632,5.632-8.704c1.024-3.072,1.536-5.632,1.536-8.704
	C356.864,387.072,355.84,384.512,354.304,382.976z"/>
    <g>
</g>
    <g>
</g>
    <g>
</g>
    <g>
</g>
    <g>
</g>
    <g>
</g>
    <g>
</g>
    <g>
</g>
    <g>
</g>
    <g>
</g>
    <g>
</g>
    <g>
</g>
    <g>
</g>
    <g>
</g>
    <g>
</g>
</svg>
