<?xml version="1.0" encoding="iso-8859-1"?>
<!-- Generator: Adobe Illustrator 19.0.0, SVG Export Plug-In . SVG Version: 6.00 Build 0)  -->
<svg version="1.1" id="Capa_1" xmlns="http://www.w3.org/2000/svg" xmlns:xlink="http://www.w3.org/1999/xlink" x="0px"
     y="0px"
     viewBox="0 0 481.28 481.28" style="enable-background:new 0 0 481.28 481.28;" xml:space="preserve">
<path style="fill:#FF5F5F;" d="M240.64,471.04h-102.4c-28.16,0-51.2-23.04-51.2-51.2V61.44c0-28.16,23.04-51.2,51.2-51.2h153.6
	l102.4,102.4v204.8v101.888c0,28.672-23.04,51.712-51.712,51.712H240.64z"/>
    <path style="fill:#DA0D42;" d="M394.24,112.64h-51.2c-28.16,0-51.2-23.04-51.2-51.2v-51.2L394.24,112.64z"/>
    <path d="M404.48,110.592L404.48,110.592c0-1.024-0.512-1.536-1.024-2.56c0,0,0-0.512-0.512-0.512
	c-0.512-1.024-1.024-1.536-1.536-2.048l-102.4-102.4c-0.512-0.512-1.536-1.024-2.048-1.536c0,0-0.512,0-0.512-0.512
	c-1.024-0.512-1.536-0.512-2.56-1.024l0,0c-0.512,0-1.536,0-2.048,0h-153.6C104.448,0,76.8,27.648,76.8,61.44v358.4
	c0,33.792,27.648,61.44,61.44,61.44h204.288c34.304,0,61.952-27.648,61.952-61.952V112.64
	C404.48,112.128,404.48,111.104,404.48,110.592z M369.664,102.4H343.04c-22.528,0-40.96-18.432-40.96-40.96V34.816L369.664,102.4z
	 M342.528,460.8H138.24c-22.528,0-40.96-18.432-40.96-40.96V61.44c0-22.528,18.432-40.96,40.96-40.96H281.6v40.96
	c0,33.792,27.648,61.44,61.44,61.44H384v296.448C384,442.368,365.568,460.8,342.528,460.8z"/>
    <path d="M345.6,275.456H138.24c-5.632,0-10.24-4.608-10.24-10.24c0-5.632,4.608-10.24,10.24-10.24H345.6
	c5.632,0,10.24,4.608,10.24,10.24C355.84,270.848,351.232,275.456,345.6,275.456z"/>
    <path d="M345.6,225.28H138.24c-5.632,0-10.24-4.608-10.24-10.24s4.608-10.24,10.24-10.24H345.6c5.632,0,10.24,4.608,10.24,10.24
	S351.232,225.28,345.6,225.28z"/>
    <path d="M345.6,174.08H138.24c-5.632,0-10.24-4.608-10.24-10.24s4.608-10.24,10.24-10.24H345.6c5.632,0,10.24,4.608,10.24,10.24
	S351.232,174.08,345.6,174.08z"/>
    <path d="M240.64,71.68h-102.4c-5.632,0-10.24-4.608-10.24-10.24s4.608-10.24,10.24-10.24h102.4c5.632,0,10.24,4.608,10.24,10.24
	S246.272,71.68,240.64,71.68z"/>
    <path d="M183.296,339.456c-2.56-2.56-5.632-4.096-9.216-5.12c-3.584-1.024-8.192-1.536-14.336-1.536h-19.456
	c-4.096,0-7.168,1.024-9.216,3.072S128,340.992,128,345.6v62.464c0,3.584,1.024,6.656,2.56,9.216
	c2.048,2.048,4.608,3.584,7.68,3.584s5.632-1.024,7.168-3.584c2.048-2.048,2.56-5.12,2.56-9.216v-20.48h11.264
	c9.728,0,17.408-2.56,23.04-7.168c5.12-4.608,8.192-11.776,8.192-20.48c0-4.096-0.512-8.192-2.048-11.264
	C187.904,344.576,185.856,341.504,183.296,339.456z M168.96,365.568c-1.024,1.536-2.56,2.56-4.096,3.072
	c-2.048,0.512-5.12,1.024-8.192,1.024h-8.192v-19.456h7.68c7.68,0,10.24,1.536,11.776,2.56c1.536,1.536,2.048,4.096,2.048,7.168
	C170.496,361.984,169.984,364.032,168.96,365.568z"/>
    <path d="M254.976,334.336c-4.096-1.024-8.704-1.536-13.824-1.536h-19.968c-4.096,0-7.168,1.024-9.216,3.072
	c-2.048,2.048-3.072,5.12-3.072,9.216v59.392c0,3.072,0,5.12,0.512,7.168c0.512,2.048,2.048,4.096,4.096,5.12
	c2.048,1.024,4.096,1.536,7.68,1.536h19.968c3.584,0,6.656,0,9.728-0.512c3.072-0.512,5.632-1.536,8.192-2.56
	c2.56-1.536,5.12-3.072,7.168-5.12c2.56-2.56,5.12-5.632,6.656-9.216c1.536-3.584,3.072-7.168,4.096-11.264
	c1.024-4.096,1.024-8.704,1.024-13.824c0-15.36-4.096-27.136-12.8-34.816C262.656,337.408,259.072,335.36,254.976,334.336z
	 M258.048,375.296c0,10.752-2.048,17.92-6.656,22.016c-1.024,1.024-2.048,1.536-3.072,2.048c-1.536,0.512-2.56,1.024-3.584,1.024
	c-1.536,0-3.072,0-5.632,0h-9.216V350.72h7.68c4.608,0,8.192,0.512,11.264,1.536c2.56,1.024,5.12,3.072,6.656,6.656
	C257.024,361.984,258.048,367.616,258.048,375.296z"/>
    <path d="M345.088,350.208c3.072,0,5.632-1.024,7.168-2.56c1.536-1.536,2.56-3.584,2.56-6.656c0-2.56-1.024-4.608-2.56-6.144
	c-1.536-1.536-4.096-2.048-7.168-2.048h-35.84c-2.56,0-4.608,0.512-6.656,1.536c-2.048,1.024-3.584,2.56-4.096,4.608
	c-1.024,2.048-1.024,4.096-1.024,6.656v61.952c0,4.096,1.024,7.168,2.56,9.216c2.048,2.048,4.608,3.584,7.68,3.584
	s5.632-1.024,7.168-3.584c2.048-2.048,2.56-5.12,2.56-9.216v-24.064h22.528c3.072,0,5.12-1.024,7.168-2.56
	c1.536-1.536,2.56-3.584,2.56-6.144s-1.024-4.608-2.56-6.144c-1.536-1.536-4.096-2.56-7.168-2.56H317.44v-15.36h27.648V350.208z"/>
    <g>
</g>
    <g>
</g>
    <g>
</g>
    <g>
</g>
    <g>
</g>
    <g>
</g>
    <g>
</g>
    <g>
</g>
    <g>
</g>
    <g>
</g>
    <g>
</g>
    <g>
</g>
    <g>
</g>
    <g>
</g>
    <g>
</g>
</svg>
