<?xml version="1.0" encoding="iso-8859-1"?>
<!-- Generator: Adobe Illustrator 19.0.0, SVG Export Plug-In . SVG Version: 6.00 Build 0)  -->
<svg version="1.1" id="Capa_1" xmlns="http://www.w3.org/2000/svg" xmlns:xlink="http://www.w3.org/1999/xlink" x="0px"
     y="0px"
     viewBox="0 0 481.28 481.28" style="enable-background:new 0 0 481.28 481.28;" xml:space="preserve">
<path style="fill:#00EB60;" d="M240.64,471.04h-102.4c-28.16,0-51.2-23.04-51.2-51.2V61.44c0-28.16,23.04-51.2,51.2-51.2h153.6
	l102.4,102.4v204.8v102.4c0,28.16-23.04,51.2-51.2,51.2H240.64z"/>
    <path style="fill:#009E1B;" d="M394.24,112.64h-51.2c-28.16,0-51.2-23.04-51.2-51.2v-51.2L394.24,112.64z"/>
    <path d="M404.48,110.592L404.48,110.592c0-1.024-0.512-1.536-1.024-2.56c0,0,0-0.512-0.512-0.512
	c-0.512-1.024-1.024-1.536-1.536-2.048l-102.4-102.4c-0.512-0.512-1.536-1.024-2.048-1.536c0,0-0.512,0-0.512-0.512
	c-1.024-0.512-1.536-0.512-2.56-1.024l0,0c-0.512,0-1.536,0-2.048,0h-153.6C104.448,0,76.8,27.648,76.8,61.44v358.4
	c0,33.792,27.648,61.44,61.44,61.44h204.8c33.792,0,61.44-27.648,61.44-61.44v-307.2C404.48,112.128,404.48,111.104,404.48,110.592z
	 M369.664,102.4H343.04c-22.528,0-40.96-18.432-40.96-40.96V34.816L369.664,102.4z M343.04,460.8h-204.8
	c-22.528,0-40.96-18.432-40.96-40.96V61.44c0-22.528,18.432-40.96,40.96-40.96H281.6v40.96c0,33.792,27.648,61.44,61.44,61.44H384
	v296.96C384,442.368,365.568,460.8,343.04,460.8z"/>
    <path d="M345.6,275.456H138.24c-5.632,0-10.24-4.608-10.24-10.24c0-5.632,4.608-10.24,10.24-10.24H345.6
	c5.632,0,10.24,4.608,10.24,10.24C355.84,270.848,351.232,275.456,345.6,275.456z"/>
    <path d="M345.6,225.28H138.24c-5.632,0-10.24-4.608-10.24-10.24s4.608-10.24,10.24-10.24H345.6c5.632,0,10.24,4.608,10.24,10.24
	S351.232,225.28,345.6,225.28z"/>
    <path d="M345.6,174.08H138.24c-5.632,0-10.24-4.608-10.24-10.24s4.608-10.24,10.24-10.24H345.6c5.632,0,10.24,4.608,10.24,10.24
	S351.232,174.08,345.6,174.08z"/>
    <path d="M240.64,71.68h-102.4c-5.632,0-10.24-4.608-10.24-10.24s4.608-10.24,10.24-10.24h102.4c5.632,0,10.24,4.608,10.24,10.24
	S246.272,71.68,240.64,71.68z"/>
    <path d="M192,398.848l-16.384-25.088l14.848-22.528c3.072-4.608,4.608-8.192,4.608-11.264c0-2.56-1.024-4.608-2.56-6.144
	c-1.536-1.536-4.096-2.56-6.656-2.56c-1.536,0-3.072,0.512-4.096,1.024s-2.048,1.536-3.072,2.56
	c-1.024,1.024-1.536,2.048-2.56,3.072l-13.312,20.48l-10.24-16.384c-2.56-3.584-4.096-6.144-5.632-7.68
	c-1.536-2.048-4.096-2.56-7.168-2.56c-2.56,0-5.12,1.024-6.656,2.56c-2.56,2.048-3.072,4.608-3.072,6.144
	c0,2.048,0.512,3.584,1.536,5.632c1.024,1.536,2.048,3.584,3.584,6.144l14.336,22.016l-16.896,25.088l0,0
	c-3.072,4.608-4.608,8.192-4.608,11.264s1.024,5.632,2.56,7.168c1.536,1.536,4.096,2.56,6.656,2.56c1.536,0,3.072-0.512,4.608-1.024
	c1.024-0.512,2.56-1.024,3.072-2.048c1.024-1.024,1.536-1.536,2.048-2.56c0.512-0.512,1.536-2.048,2.56-4.096l12.8-19.456
	L174.08,409.6c2.048,2.56,3.072,4.608,3.584,5.632c1.024,1.024,2.048,2.048,3.584,3.072c1.536,1.024,3.072,1.536,5.12,1.536
	c2.048,0,3.584-0.512,5.12-1.024c1.536-1.024,2.56-2.048,3.584-3.584c1.024-1.536,1.536-3.072,1.536-4.608
	c0-1.536-0.512-3.584-1.024-5.632C194.56,403.456,193.536,401.408,192,398.848z"/>
    <path d="M265.728,399.872h-30.72v-56.32c0-4.096-1.024-7.168-3.072-9.216c-2.048-2.048-4.608-3.072-7.68-3.072
	s-5.632,1.024-7.68,3.072c-2.048,2.048-3.072,5.12-3.072,9.216v61.952c0,4.096,1.024,7.168,3.072,9.216
	c2.048,2.048,5.12,3.072,9.728,3.072h39.424c3.072,0,6.144-1.024,7.68-2.56c2.048-1.536,3.072-4.096,3.072-6.656
	s-1.024-5.12-3.072-6.656C271.872,400.896,268.8,399.872,265.728,399.872z"/>
    <path d="M353.28,379.904c-1.536-3.072-4.096-5.632-6.656-7.68c-2.56-2.048-6.144-3.584-10.24-5.12
	c-3.584-1.536-8.192-2.56-12.8-3.584c-3.584-1.024-6.144-1.536-7.68-2.048c-1.536-0.512-2.56-1.024-4.096-1.536
	c-1.024-0.512-2.048-1.536-2.56-2.56c-0.512-0.512-1.024-1.536-1.024-2.56c0-1.024,0.512-2.56,2.56-4.608
	c2.048-1.536,5.12-2.56,8.704-2.56c4.096,0,6.656,0.512,8.192,2.048c1.536,1.536,3.072,3.584,4.608,6.144
	c1.024,2.56,2.56,4.096,3.584,5.12c3.072,3.072,9.728,3.072,13.312-1.024c2.048-2.048,2.56-4.608,2.56-7.168
	c0-2.56-0.512-5.12-2.048-7.68c-1.024-2.56-3.072-5.12-5.632-7.168s-6.144-4.096-9.728-5.632c-4.096-1.536-8.704-2.048-13.824-2.048
	c-6.656,0-12.288,1.024-17.408,3.072s-8.704,5.12-11.776,8.704c-2.56,4.096-4.096,8.192-4.096,13.312s1.536,9.728,4.096,13.312
	s6.144,6.144,10.24,8.192c4.096,2.048,9.216,3.584,14.848,5.12c4.096,1.024,7.68,2.048,10.24,2.56
	c2.048,0.512,4.096,2.048,5.12,3.072s1.536,2.56,1.536,4.608c0,2.56-1.024,4.608-3.584,6.656c-2.56,2.048-6.144,3.072-10.24,3.072
	c-3.072,0-5.632-0.512-7.168-1.536c-1.536-1.024-3.072-2.048-4.096-3.584c-1.024-1.536-2.048-3.584-3.072-6.144
	c-1.024-2.56-2.048-4.608-3.584-5.632c-1.536-1.536-3.584-2.56-6.144-2.56c-3.072,0-5.12,1.024-7.168,3.072s-2.56,4.096-2.56,6.656
	c0,4.096,1.536,7.68,4.096,11.776c2.56,4.096,5.632,7.168,9.728,9.728c5.632,3.072,12.8,5.12,20.992,5.12
	c7.168,0,13.312-1.024,18.432-3.584c5.12-2.56,9.216-5.632,12.288-10.24c2.56-4.096,4.096-9.216,4.096-14.336
	C355.84,387.072,354.816,383.488,353.28,379.904z"/>
    <g>
</g>
    <g>
</g>
    <g>
</g>
    <g>
</g>
    <g>
</g>
    <g>
</g>
    <g>
</g>
    <g>
</g>
    <g>
</g>
    <g>
</g>
    <g>
</g>
    <g>
</g>
    <g>
</g>
    <g>
</g>
    <g>
</g>
</svg>
